<svg xmlns="http://www.w3.org/2000/svg" xmlns:xlink="http://www.w3.org/1999/xlink" xmlns:inkscape="http://www.inkscape.org/namespaces/inkscape" version="1.1" width="2000" height="2000" viewBox="0 0 2000 2000">
<defs>
<clipPath id="clip_0">
<path transform="matrix(1,0,0,-1,0,2000)" d="M0 2000H2000V0H0Z"/>
</clipPath>
<clipPath id="clip_1">
<path transform="matrix(1,0,0,-1,0,2000)" d="M107-318.667H1923.25V2103H107Z"/>
</clipPath>
<clipPath id="clip_2">
<path transform="matrix(1,0,0,-1,0,2000)" d="M0 2000H2000V0H0Z"/>
</clipPath>
<clipPath id="clip_3">
<path transform="matrix(1,0,0,-1,0,2000)" d="M969.234 1090.36C794.47 1074.526 667.244 1005.313 603.386 964.399 614.218 895.916 625.049 827.433 635.881 758.949 895.515 777.452 1155.15 795.956 1414.784 814.458 1422.561 873.266 1430.336 932.073 1438.111 990.881 1378.608 1023.651 1234.544 1093.636 1041.465 1093.629 1018.095 1093.628 993.977 1092.602 969.234 1090.36"/>
</clipPath>
<clipPath id="clip_4">
<path transform="matrix(1,0,0,-1,0,2000)" d="M586.82 648.073H1455.95V1065.54H586.82Z"/>
</clipPath>
<clipPath id="clip_5">
<path transform="matrix(1,0,0,-1,0,2000)" d="M0 2000H2000V0H0Z"/>
</clipPath>
<clipPath id="clip_6">
<path transform="matrix(1,0,0,-1,0,2000)" d="M926.101 896.705C797.568 876.917 697.538 831.485 631.809 794.438 650.934 664.355 670.057 534.27 689.182 404.185 912.189 409.475 1135.195 414.765 1358.202 420.053 1378.245 556.47 1398.288 692.885 1418.331 829.3 1353.181 858.028 1222.899 906.645 1056.028 906.639 1014.815 906.637 971.343 903.67 926.101 896.705"/>
</clipPath>
<clipPath id="clip_7">
<path transform="matrix(1,0,0,-1,0,2000)" d="M0 2000H2000V0H0Z"/>
</clipPath>
<clipPath id="clip_8">
<path transform="matrix(1,0,0,-1,0,2000)" d="M1222.441 1637.971C1173.1 1626.901 1142.078 1577.929 1153.147 1528.59 1164.217 1479.25 1213.188 1448.226 1262.528 1459.295 1311.869 1470.365 1342.893 1519.338 1331.824 1568.677 1322.266 1611.272 1284.471 1640.216 1242.57 1640.212 1235.934 1640.211 1229.187 1639.485 1222.441 1637.971"/>
</clipPath>
<clipPath id="clip_9">
<path transform="matrix(1,0,0,-1,0,2000)" d="M0 2000H2000V0H0Z"/>
</clipPath>
<clipPath id="clip_10">
<path transform="matrix(1,0,0,-1,0,2000)" d="M748.835 1625.626C699.495 1614.556 668.471 1565.584 679.541 1516.244 690.61 1466.904 739.583 1435.88 788.923 1446.95 838.263 1458.02 869.287 1506.991 858.217 1556.331 848.66 1598.926 810.865 1627.87 768.964 1627.867 762.328 1627.866 755.581 1627.139 748.835 1625.626"/>
</clipPath>
<clipPath id="clip_11">
<path transform="matrix(1,0,0,-1,0,2000)" d="M0 2000H2000V0H0Z"/>
</clipPath>
<clipPath id="clip_12">
<path transform="matrix(1,0,0,-1,0,2000)" d="M795.373 1540.77H837.321V1566.51H795.373Z"/>
</clipPath>
<clipPath id="clip_13">
<path transform="matrix(1,0,0,-1,0,2000)" d="M1267.59 1547.18H1309.53V1572.93H1267.59Z"/>
</clipPath>
</defs>
<g>
<g inkscape:groupmode="layer" inkscape:label="&#x0421;&#x043B;&#x043E;&#x0439; 1">
<g clip-path="url(#clip_0)">
<g opacity=".639999">
<g clip-path="url(#clip_1)">
</g>
</g>
</g>
</g>
<g inkscape:groupmode="layer" inkscape:label="&#x0421;&#x043B;&#x043E;&#x0439; 3">
<g clip-path="url(#clip_2)">
<path transform="matrix(1,0,0,-1,1013.7061,277.00196)" d="M0 0C-224.015 2.177-394.354-66.094-480.776-107.915-493.317-112.282-519.646-123.439-541.037-149.998-553.489-165.457-560.023-180.864-563.55-191.687-555.88-215.548-538.193-258.785-497.325-295.371-457.049-331.426-415.064-342.396-376.067-352.584-346.919-360.2-284.089-375.912-205.712-361.909-92.795-341.736-21.561-273.098 4.046-245.721 83.379-281.411 162.711-317.102 242.044-352.792 267.074-356.573 302.088-358.83 342.707-351.742 413.338-339.415 462.613-305.515 487.107-285.832 518.828-257.113 531.692-213.637 519.996-174.451 505.519-125.944 460.479-107.708 454.875-105.547 369.52-64.763 209.526-2.036 0 0" fill="#ffffff"/>
<path transform="matrix(1,0,0,-1,853.6768,973.02737)" d="M0 0C-39.559 102.343-79.118 204.685-118.677 307.027-73.343 317.361-28.01 327.694 17.323 338.027 29.271 229.485 41.22 120.942 53.169 12.399 35.446 8.266 17.723 4.133 0 0" fill="#00a990"/>
<path transform="matrix(1,0,0,-1,1182,617)" d="M0 0C-7.92-105.278-15.84-210.557-23.76-315.834L31.931-332.279C64.287-230.186 96.644-128.093 129-26 86-17.333 43-8.667 0 0" fill="#00a990"/>
<path transform="matrix(1,0,0,-1,603.3857,1035.6006)" d="M0 0C63.858 40.913 191.085 110.126 365.849 125.961 595.006 146.724 768.02 63.218 834.726 26.481 826.95-32.326 819.175-91.134 811.398-149.941 551.765-168.444 292.13-186.947 32.495-205.45 21.664-136.967 10.832-68.483 0 0" fill="#cd2958"/>
</g>
<g clip-path="url(#clip_3)">
<g opacity=".639999">
<g clip-path="url(#clip_4)">
<path transform="matrix(1,0,0,-1,596.8975,1194.082)" d="M0 0C45.166 22.679 90.331 45.358 135.496 68.037 124.235 130.348 112.974 192.657 101.713 254.968L121.651 259.617C135.127 197.824 148.604 136.03 162.08 74.236 220.107 95.73 298.903 117.934 393.983 125.515 538.628 137.048 656.533 109.604 729.728 86.086 737.03 142.915 744.333 199.743 751.636 256.572 758.562 254.917 765.488 253.262 772.415 251.607 765.112 194.778 757.81 137.95 750.507 81.121 786.688 66.2 822.869 51.279 859.051 36.359L856.03-28.814C536.066-120.873 71.604-229.604-.499-94.017-12.132-72.14-14.539-42.046 0 0" fill="#9f283c"/>
</g>
</g>
</g>
<g clip-path="url(#clip_5)">
<path transform="matrix(1,0,0,-1,631.8091,1205.5615)" d="M0 0C65.729 37.046 165.759 82.479 294.292 102.267 522.719 137.434 705.282 70.685 786.522 34.861 766.479-101.554 746.436-237.969 726.393-374.385 503.386-379.674 280.38-384.964 57.373-390.253 38.249-260.169 19.125-130.084 0 0" fill="#f89839"/>
</g>
<g clip-path="url(#clip_6)">
<path transform="matrix(1,0,0,-1,1446.7803,1130.4297)" d="M0 0C-42.083-74.605-123.396-195.234-265.605-297.393-478.382-450.243-697.633-468.463-787.151-470.875-540.09-500.619-293.03-530.364-45.969-560.108Z" fill="#e5752e"/>
</g>
<g clip-path="url(#clip_7)">
<path transform="matrix(1,0,0,-1,676.3457,1556.9619)" d="M0 0C2.931-110.657 5.86-221.315 8.791-331.973 72.232-331.715 135.674-331.456 199.115-331.197 200.812-222.887 202.507-114.575 204.203-6.265 189.085 41.867 144.056 73.676 95.974 71.452 53.501 69.488 15.51 41.286 0 0" fill="#00755f"/>
<path transform="matrix(1,0,0,-1,1165.4512,1559.9902)" d="M0 0C3.292-110.647 6.583-221.295 9.875-331.942 73.315-331.477 136.756-331.012 200.196-330.546 201.538-222.229 202.881-113.914 204.223-5.598 188.948 42.483 143.814 74.146 95.74 71.765 53.274 69.662 15.375 41.336 0 0" fill="#00755f"/>
<path transform="matrix(1,0,0,-1,1331.8233,431.32276)" d="M0 0C11.069-49.34-19.954-98.312-69.295-109.382-118.635-120.452-167.606-89.428-178.677-40.088-189.746 9.252-158.723 58.224-109.382 69.294-60.042 80.364-11.07 49.34 0 0" fill="#00755f"/>
</g>
<g clip-path="url(#clip_8)">
<path transform="matrix(1,0,0,-1,1268.6367,289.10743)" d="M0 0C45.182-52.36 50.906-126.796 15.597-181.043-13.678-226.018-67.215-251.058-122.973-246.539-130.958-280.651-138.944-314.764-146.93-348.876-64.865-333.592 17.2-318.308 99.265-303.023 106.275-277.823 117.338-218.185 95.637-145.403 71.325-63.863 20.085-15.814 0 0" fill="#00826a"/>
</g>
<g clip-path="url(#clip_9)">
<path transform="matrix(1,0,0,-1,858.2168,443.66847)" d="M0 0C11.07-49.34-19.954-98.312-69.294-109.382-118.634-120.452-167.606-89.428-178.676-40.087-189.746 9.252-158.722 58.224-109.382 69.294-60.042 80.364-11.07 49.34 0 0" fill="#00755f"/>
</g>
<g clip-path="url(#clip_10)">
<path transform="matrix(1,0,0,-1,795.0312,301.45314)" d="M0 0C45.181-52.36 50.906-126.795 15.596-181.043-13.679-226.018-67.215-251.058-122.973-246.539-130.959-280.651-138.944-314.764-146.93-348.876-64.865-333.592 17.2-318.308 99.265-303.023 106.275-277.823 117.337-218.185 95.637-145.403 71.325-63.863 20.084-15.814 0 0" fill="#00826a"/>
</g>
<g clip-path="url(#clip_11)">
<path transform="matrix(1,0,0,-1,438.9922,462.8833)" stroke-width="19" stroke-linecap="butt" stroke-miterlimit="10" stroke-linejoin="miter" fill="none" stroke="#00a990" d="M0 0C13.149 117.15 342.403 185.073 582.909 180.785 806.421 176.8 1100.741 107.822 1113.361-2.44 1120.428-64.176 1037.692-125.855 988.688-149.941 900.082-193.491 812.863-167.655 756.26-150.887 670.361-125.441 610.38-78.962 575.66-46.547 578.076 29.23 580.493 105.008 582.909 180.785 580.493 105.008 578.076 29.23 575.66-46.547 507.762-148.111 391.247-205.17 271.859-195.178 132.683-183.531-9.078-80.875 0 0Z"/>
<path transform="matrix(1,0,0,-1,1011,291)" d="M0 0C1.146-9.611 16.204-146.449-35-234-48.692-257.412-65.273-285.763-97-307-109.943-315.664-143.081-334.975-143.05-335.025-143.049-335.027-143.008-335.005-143-335-142.021-334.349-94.567-305.314-27-264-17.183-248.888-4.319-225.584 4-195 12.533-163.631 12.397-138.899 12-108 11.653-81.052 9.194-43.92 0 0" fill="#00a990"/>
<path transform="matrix(1,0,0,-1,1015,505)" d="M0 0C13.868 177.606 16.298 212.977 16 213 15.279 213.057-12.665 85.185 52-13 73.426-45.533 100.283-67.386 123-82 145-91.667 167-101.333 189-111L77.145-72.817C60.609-59.367 43.405-44.157 26-27 16.77-17.901 8.112-8.875 0 0" fill="#00a990"/>
<g opacity=".630005">
<g clip-path="url(#clip_12)">
<path transform="matrix(1,0,0,-1,837.126,451.32374)" d="M0 0C-1.567-6.558-12.14-9.651-23.616-6.909-35.092-4.167-43.125 3.372-41.558 9.93-39.991 16.487-29.418 19.58-17.942 16.838-6.466 14.096 1.567 6.558 0 0" fill="#ffffff"/>
</g>
</g>
<g opacity=".630005">
<g clip-path="url(#clip_13)">
<path transform="matrix(1,0,0,-1,1309.3379,444.9126)" d="M0 0C-1.566-6.558-12.14-9.651-23.615-6.909-35.091-4.167-43.124 3.372-41.558 9.93-39.99 16.487-29.417 19.58-17.941 16.838-6.466 14.096 1.567 6.558 0 0" fill="#ffffff"/>
</g>
</g>
<path transform="matrix(1,0,0,-1,1008,289)" d="M0 0C-.667-50.667-1.333-101.333-2-152 .333-150 2.667-148 5-146L8 1C5.333 .667 2.667 .333 0 0" fill="#00a990"/>
</g>
</g>
</g>
</svg>
