<svg width="265" height="332" viewBox="0 0 265 332" fill="none" xmlns="http://www.w3.org/2000/svg">
<path d="M136.508 8.80194C87.3372 8.32409 49.9478 23.3096 30.9781 32.4893C28.2254 33.4478 22.4462 35.8968 17.7508 41.7265C15.0176 45.1197 13.5834 48.5016 12.8092 50.8772C14.4928 56.1147 18.3751 65.6052 27.3456 73.6359C36.1862 81.5499 45.4019 83.9579 53.9618 86.1941C60.3597 87.8658 74.1509 91.3146 91.3547 88.241C116.14 83.813 131.776 68.7469 137.397 62.7377C154.81 70.5716 172.224 78.4058 189.637 86.2398C195.131 87.0697 202.817 87.5651 211.733 86.0093C227.236 83.3035 238.052 75.8625 243.428 71.5421C250.391 65.2382 253.215 55.6953 250.648 47.0939C247.47 36.4466 237.584 32.4438 236.354 31.9695C217.618 23.0174 182.499 9.24884 136.508 8.80194Z" fill="white"/>
<path d="M101.382 161.579C92.6988 139.115 84.0156 116.651 75.3324 94.1871C85.2832 91.9188 95.2338 89.6507 105.184 87.3826C107.807 111.208 110.43 135.033 113.053 158.858C109.162 159.765 105.272 160.672 101.382 161.579Z" fill="#00A990"/>
<path d="M173.449 83.4315C171.711 106.54 169.972 129.649 168.234 152.757L180.458 156.367C187.56 133.957 194.662 111.548 201.764 89.1385C192.326 87.2361 182.887 85.3339 173.449 83.4315Z" fill="#00A990"/>
<path d="M46.4431 175.314C60.4599 166.334 88.3863 151.142 126.747 147.666C177.047 143.108 215.024 161.438 229.665 169.502C227.959 182.41 226.252 195.318 224.545 208.226C167.556 212.288 110.566 216.349 53.5758 220.411C51.1984 205.379 48.8207 190.346 46.4431 175.314Z" fill="#CD2958"/>
<mask id="mask0_2_86" style="mask-type:luminance" maskUnits="userSpaceOnUse" x="46" y="146" width="184" height="75">
<path d="M126.747 147.666C88.3861 151.142 60.46 166.334 46.4432 175.314C48.8208 190.346 51.1982 205.378 53.5759 220.411C110.566 216.349 167.555 212.288 224.545 208.226C226.252 195.318 227.959 182.41 229.665 169.502C216.604 162.309 184.982 146.947 142.602 146.948C137.472 146.949 132.178 147.174 126.747 147.666Z" fill="white"/>
</mask>
<g mask="url(#mask0_2_86)">
<g opacity="0.639999">
<mask id="mask1_2_86" style="mask-type:luminance" maskUnits="userSpaceOnUse" x="42" y="153" width="192" height="92">
<path d="M42.807 244.748H233.581V153.114H42.807V244.748Z" fill="white"/>
</mask>
<g mask="url(#mask1_2_86)">
<path d="M45.019 210.101C54.9329 205.123 64.8466 200.145 74.7603 195.167C72.2886 181.49 69.8168 167.813 67.345 154.136L71.7214 153.115C74.6793 166.679 77.6375 180.242 80.5955 193.806C93.3325 189.088 110.628 184.214 131.498 182.55C163.248 180.019 189.128 186.043 205.194 191.205C206.797 178.731 208.4 166.257 210.003 153.783C211.523 154.147 213.044 154.51 214.564 154.873C212.961 167.347 211.358 179.821 209.755 192.295C217.697 195.57 225.639 198.845 233.581 202.12L232.918 216.426C162.685 236.633 60.736 260.499 44.9094 230.738C42.356 225.936 41.8277 219.33 45.019 210.101Z" fill="#9F283C"/>
</g>
</g>
</g>
<path d="M52.6821 212.621C67.1096 204.489 89.0662 194.517 117.279 190.173C167.419 182.454 207.491 197.105 225.324 204.969C220.924 234.912 216.525 264.855 212.125 294.798C163.175 295.959 114.225 297.12 65.2754 298.281C61.0777 269.728 56.88 241.174 52.6821 212.621Z" fill="#F89839"/>
<mask id="mask2_2_86" style="mask-type:luminance" maskUnits="userSpaceOnUse" x="52" y="187" width="174" height="112">
<path d="M117.279 190.173C89.0662 194.517 67.1096 204.489 52.6821 212.621C56.88 241.174 61.0775 269.728 65.2754 298.281C114.225 297.12 163.175 295.959 212.125 294.798C216.525 264.855 220.924 234.912 225.324 204.969C211.023 198.663 182.426 187.991 145.798 187.993C136.752 187.993 127.21 188.644 117.279 190.173Z" fill="white"/>
</mask>
<g mask="url(#mask2_2_86)">
<path d="M231.568 196.129C222.331 212.505 204.483 238.983 173.268 261.407C126.563 294.958 78.4378 298.957 58.7886 299.486C113.018 306.015 167.248 312.544 221.478 319.073L231.568 196.129Z" fill="#E5752E"/>
</g>
<path d="M62 284.286C62.6459 300.19 63.2914 316.095 63.9373 332C77.9177 331.963 91.8983 331.926 105.879 331.888C106.253 316.321 106.626 300.753 107 285.186C103.668 278.268 93.7455 273.696 83.1497 274.016C73.79 274.298 65.4179 278.352 62 284.286Z" fill="#00755F"/>
<path d="M170 285.147C170.725 300.765 171.451 316.382 172.176 332C186.155 331.934 200.134 331.869 214.113 331.803C214.408 316.514 214.704 301.226 215 285.937C211.634 279.151 201.689 274.682 191.096 275.018C181.739 275.315 173.388 279.313 170 285.147Z" fill="#00755F"/>
<path d="M206.335 42.6754C208.765 53.5055 201.955 64.2548 191.125 66.6847C180.295 69.1146 169.546 62.3048 167.116 51.4747C164.686 40.6445 171.495 29.8952 182.326 27.4653C193.156 25.0355 203.905 31.8452 206.335 42.6754Z" fill="#00755F"/>
<mask id="mask3_2_86" style="mask-type:luminance" maskUnits="userSpaceOnUse" x="166" y="26" width="41" height="42">
<path d="M182.326 27.4654C171.495 29.8952 164.686 40.6446 167.116 51.4745C169.546 62.3046 180.295 69.1144 191.125 66.6847C201.955 64.2549 208.765 53.5053 206.335 42.6754C204.237 33.3258 195.941 26.9726 186.744 26.9735C185.287 26.9737 183.807 27.1331 182.326 27.4654Z" fill="white"/>
</mask>
<g mask="url(#mask3_2_86)">
<path d="M192.466 11.4591C202.383 22.9521 203.64 39.2908 195.889 51.198C189.463 61.07 177.712 66.5663 165.473 65.5744C163.72 73.062 161.968 80.5498 160.215 88.0374C178.228 84.6825 196.241 81.3277 214.254 77.9726C215.793 72.4412 218.221 59.3507 213.458 43.3751C208.122 25.477 196.874 14.9303 192.466 11.4591Z" fill="#00826A"/>
</g>
<path d="M102.379 45.3852C104.808 56.2154 97.9986 66.9647 87.1685 69.3946C76.3384 71.8244 65.589 65.0147 63.1592 54.1843C60.7293 43.3544 67.5391 32.6051 78.3692 30.1752C89.1993 27.7453 99.9487 34.5551 102.379 45.3852Z" fill="#00755F"/>
<mask id="mask4_2_86" style="mask-type:luminance" maskUnits="userSpaceOnUse" x="62" y="29" width="41" height="41">
<path d="M78.3693 30.1751C67.5391 32.605 60.7294 43.3543 63.1592 54.1844C65.5889 65.0146 76.3384 71.8244 87.1686 69.3945C97.9987 66.9646 104.808 56.2155 102.379 45.3853C100.281 36.0357 91.9848 29.6826 82.7876 29.6832C81.331 29.6834 79.85 29.843 78.3693 30.1751Z" fill="white"/>
</mask>
<g mask="url(#mask4_2_86)">
<path d="M88.5093 14.169C98.4265 25.662 99.6832 42.0005 91.9326 53.9079C85.5068 63.7799 73.7556 69.2762 61.5167 68.2843C59.7638 75.7719 58.0111 83.2597 56.2582 90.7473C74.2714 87.3924 92.2847 84.0376 110.298 80.6825C111.837 75.1511 114.265 62.0606 109.502 46.0849C104.165 28.1869 92.9177 17.6401 88.5093 14.169Z" fill="#00826A"/>
</g>
<path d="M138.307 9.92058C85.5162 8.97936 13.245 23.8885 10.3588 49.6029C8.36614 67.355 39.4827 89.8879 70.0318 92.4445C96.2375 94.6377 121.813 82.1133 136.716 59.82M138.307 9.92058C187.368 10.7953 251.971 25.936 254.742 50.1385C256.293 63.6895 238.132 77.2281 227.376 82.5149C207.927 92.0742 188.782 86.4032 176.358 82.7226C157.503 77.1372 144.337 66.935 136.716 59.82M138.307 9.92058C137.777 26.5536 137.246 43.1869 136.716 59.82" stroke="#00A990" stroke-width="19" stroke-miterlimit="10"/>
<path d="M135.914 11.8745C136.166 13.9841 139.471 44.0201 128.232 63.2375C125.227 68.3764 121.587 74.5995 114.623 79.261C111.782 81.1628 104.508 85.4015 104.515 85.4125C104.515 85.4129 104.524 85.4081 104.526 85.407C104.741 85.2641 115.157 78.8909 129.988 69.8225C132.143 66.5054 134.966 61.3902 136.792 54.677C138.665 47.7915 138.636 42.3628 138.548 35.5805C138.472 29.6654 137.933 21.515 135.914 11.8745Z" fill="#00A990"/>
<path d="M136.792 58.8475C139.837 19.863 140.37 12.0991 140.304 12.094C140.146 12.0815 134.013 40.1494 148.206 61.701C152.909 68.842 158.805 73.6387 163.791 76.8465C168.62 78.9684 173.449 81.0901 178.278 83.212L153.726 74.8308C150.096 71.8786 146.32 68.54 142.499 64.774C140.473 62.7768 138.573 60.7956 136.792 58.8475Z" fill="#00A990"/>
<g opacity="0.630005">
<mask id="mask5_2_86" style="mask-type:luminance" maskUnits="userSpaceOnUse" x="70" y="51" width="10" height="6">
<path d="M70 56.6499H79.2076V51H70V56.6499Z" fill="white"/>
</mask>
<g mask="url(#mask5_2_86)">
<path d="M79.1648 54.9145C78.8208 56.354 76.5 57.0329 73.9811 56.431C71.4621 55.8292 69.6988 54.1744 70.0428 52.7349C70.3867 51.2956 72.7075 50.6167 75.2265 51.2186C77.7455 51.8204 79.5087 53.475 79.1648 54.9145Z" fill="white"/>
</g>
</g>
<g opacity="0.630005">
<mask id="mask6_2_86" style="mask-type:luminance" maskUnits="userSpaceOnUse" x="173" y="48" width="10" height="6">
<path d="M173 53.6521H182.206V48H173V53.6521Z" fill="white"/>
</mask>
<g mask="url(#mask6_2_86)">
<path d="M182.164 51.9165C181.82 53.3559 179.499 54.0349 176.98 53.433C174.461 52.8311 172.698 51.1763 173.042 49.7368C173.386 48.2976 175.707 47.6187 178.226 48.2205C180.744 48.8224 182.508 50.477 182.164 51.9165Z" fill="white"/>
</g>
</g>
<path d="M135.256 11.4355C135.11 22.5569 134.963 33.6781 134.817 44.7995C135.329 44.3605 135.841 43.9215 136.353 43.4825L137.012 11.216C136.427 11.2891 135.841 11.3624 135.256 11.4355Z" fill="#00A990"/>
</svg>
